<svg xmlns="http://www.w3.org/2000/svg" width="560" height="120" viewBox="0 0 560 120" role="img" aria-label="Lumiér, новогодний свет под ключ">
  <circle cx="24" cy="60" r="6" fill="#FFFFFF" opacity="0.18"/>
  <circle cx="35" cy="62" r="5.5" fill="#FFFFFF" opacity="0.18"/>
  <circle cx="46" cy="76" r="6" fill="#FFFFFF" opacity="0.18"/>
  <circle cx="56" cy="73" r="5.5" fill="#FFFFFF" opacity="0.18"/>
  <circle cx="66" cy="78" r="6" fill="#FFFFFF" opacity="0.18"/>
  <circle cx="77" cy="61" r="5.5" fill="#FFFFFF" opacity="0.18"/>
  <circle cx="88" cy="59" r="6" fill="#FFFFFF" opacity="0.18"/>
  <g stroke="#FFFFFF" stroke-width="1.5" stroke-linecap="round">
    <line x1="24" y1="42" x2="24" y2="60"/>
    <line x1="35" y1="50" x2="35" y2="62"/>
    <line x1="46" y1="56" x2="46" y2="76"/>
    <line x1="56" y1="58" x2="56" y2="73"/>
    <line x1="66" y1="56" x2="66" y2="78"/>
    <line x1="77" y1="50" x2="77" y2="61"/>
    <line x1="88" y1="42" x2="88" y2="59"/>
  </g>
  <path d="M24,42 C24,42 40,58 56,58 S88,42 88,42" fill="none" stroke="#FFFFFF" stroke-width="2" stroke-linecap="round"/>
  <circle cx="24" cy="60" r="3" fill="#FFFFFF"/>
  <circle cx="35" cy="62" r="2.5" fill="#FFFFFF"/>
  <circle cx="46" cy="76" r="3" fill="#FFFFFF"/>
  <circle cx="56" cy="73" r="2.5" fill="#FFFFFF"/>
  <circle cx="66" cy="78" r="3" fill="#FFFFFF"/>
  <circle cx="77" cy="61" r="2.5" fill="#FFFFFF"/>
  <circle cx="88" cy="59" r="3" fill="#FFFFFF"/>
  <text x="112" y="56" fill="#FFFFFF" font-family="'Unbounded', sans-serif" font-size="34" font-weight="500">Lumiér</text>
  <text x="113" y="76" fill="#FFFFFF" font-family="'Manrope', sans-serif" font-size="10" font-weight="400" letter-spacing="0.22em">НОВОГОДНИЙ СВЕТ ПОД КЛЮЧ</text>
</svg>
