<svg xmlns="http://www.w3.org/2000/svg" width="80" height="80" viewBox="0 0 80 80" role="img" aria-label="Lumiér garland arc mark">
  <defs>
    <linearGradient id="lm2-grad" x1="8" y1="22" x2="72" y2="58" gradientUnits="userSpaceOnUse">
      <stop offset="0" stop-color="#FFE8B0"/>
      <stop offset="1" stop-color="#E8C57E"/>
    </linearGradient>
  </defs>
  <rect width="80" height="80" rx="18" fill="#0A1F1A"/>
  <circle cx="8" cy="40" r="6" fill="#FFE8B0" opacity="0.18"/>
  <circle cx="19" cy="42" r="5.5" fill="#E8C57E" opacity="0.18"/>
  <circle cx="30" cy="56" r="6" fill="#FFE8B0" opacity="0.18"/>
  <circle cx="40" cy="53" r="5.5" fill="#E8C57E" opacity="0.18"/>
  <circle cx="50" cy="58" r="6" fill="#FFE8B0" opacity="0.18"/>
  <circle cx="61" cy="41" r="5.5" fill="#E8C57E" opacity="0.18"/>
  <circle cx="72" cy="39" r="6" fill="#FFE8B0" opacity="0.18"/>
  <g stroke="url(#lm2-grad)" stroke-width="1.5" stroke-linecap="round">
    <line x1="8" y1="22" x2="8" y2="40"/>
    <line x1="19" y1="30" x2="19" y2="42"/>
    <line x1="30" y1="36" x2="30" y2="56"/>
    <line x1="40" y1="38" x2="40" y2="53"/>
    <line x1="50" y1="36" x2="50" y2="58"/>
    <line x1="61" y1="30" x2="61" y2="41"/>
    <line x1="72" y1="22" x2="72" y2="39"/>
  </g>
  <path d="M8,22 C8,22 24,38 40,38 S72,22 72,22" fill="none" stroke="url(#lm2-grad)" stroke-width="2" stroke-linecap="round"/>
  <circle cx="8" cy="40" r="3" fill="#FFE8B0"/>
  <circle cx="19" cy="42" r="2.5" fill="#E8C57E"/>
  <circle cx="30" cy="56" r="3" fill="#FFE8B0"/>
  <circle cx="40" cy="53" r="2.5" fill="#E8C57E"/>
  <circle cx="50" cy="58" r="3" fill="#FFE8B0"/>
  <circle cx="61" cy="41" r="2.5" fill="#E8C57E"/>
  <circle cx="72" cy="39" r="3" fill="#FFE8B0"/>
</svg>
